HIERARCHY
ROOT joint_0
{
	OFFSET 0.000000 0.000000 0.000000
	CHANNELS 6 Xposition Yposition Zposition Zrotation Yrotation Xrotation 
	JOINT joint_1
	{
		OFFSET 8.185791 -2.713684 100.414917
		CHANNELS 3 Zrotation Yrotation Xrotation
		JOINT joint_2
		{
			OFFSET -4.376465 -1.111145 91.934082
			CHANNELS 3 Zrotation Yrotation Xrotation
			JOINT joint_3
			{
				OFFSET -6.985840 -1.054016 91.669922
				CHANNELS 3 Zrotation Yrotation Xrotation
				JOINT joint_4
				{
					OFFSET 0.150391 -4.451904 123.526001
					CHANNELS 3 Zrotation Yrotation Xrotation
					JOINT joint_5
					{
						OFFSET 19.754150 -8.123901 80.916992
						CHANNELS 3 Zrotation Yrotation Xrotation
						End Site
						{
							OFFSET 0.000000 0.000000 0.000000
						}
					}
				}
				JOINT joint_6
				{
					OFFSET -6.477539 -28.517334 68.237061
					CHANNELS 3 Zrotation Yrotation Xrotation
					JOINT joint_7
					{
						OFFSET -20.564453 -115.426208 -21.139038
						CHANNELS 3 Zrotation Yrotation Xrotation
						JOINT joint_8
						{
							OFFSET 18.981934 -19.826172 -267.898926
							CHANNELS 3 Zrotation Yrotation Xrotation
							JOINT joint_9
							{
								OFFSET 11.562744 -19.325867 -235.478027
								CHANNELS 3 Zrotation Yrotation Xrotation
								End Site
								{
									OFFSET 0.000000 0.000000 0.000000
								}
							}
						}
					}
				}
				JOINT joint_10
				{
					OFFSET 7.033936 23.504700 70.088989
					CHANNELS 3 Zrotation Yrotation Xrotation
					JOINT joint_11
					{
						OFFSET 36.629639 112.486816 -14.036987
						CHANNELS 3 Zrotation Yrotation Xrotation
						JOINT joint_12
						{
							OFFSET 41.355225 -7.048523 -266.019897
							CHANNELS 3 Zrotation Yrotation Xrotation
							JOINT joint_13
							{
								OFFSET 5.858887 29.785156 -234.603027
								CHANNELS 3 Zrotation Yrotation Xrotation
								End Site
								{
									OFFSET 0.000000 0.000000 0.000000
								}
							}
						}
					}
				}
			}
		}
	}
	JOINT joint_14
	{
		OFFSET -8.917725 -79.985535 -99.035034
		CHANNELS 3 Zrotation Yrotation Xrotation
		JOINT joint_15
		{
			OFFSET -32.739502 -31.478882 -502.570984
			CHANNELS 3 Zrotation Yrotation Xrotation
			JOINT joint_16
			{
				OFFSET 7.393066 -29.352966 -399.008011
				CHANNELS 3 Zrotation Yrotation Xrotation
				JOINT joint_17
				{
					OFFSET 178.013916 -26.060303 -71.875002
					CHANNELS 3 Zrotation Yrotation Xrotation
					End Site
					{
						OFFSET 0.000000 0.000000 0.000000
					}
				}
			}
		}
	}
	JOINT joint_18
	{
		OFFSET 1.900879 81.159851 -98.481018
		CHANNELS 3 Zrotation Yrotation Xrotation
		JOINT joint_19
		{
			OFFSET -15.120850 31.602051 -503.400024
			CHANNELS 3 Zrotation Yrotation Xrotation
			JOINT joint_20
			{
				OFFSET -16.653076 23.887695 -399.091988
				CHANNELS 3 Zrotation Yrotation Xrotation
				JOINT joint_21
				{
					OFFSET 179.618164 -1.217651 -72.592001
					CHANNELS 3 Zrotation Yrotation Xrotation
					End Site
					{
						OFFSET 0.000000 0.000000 0.000000
					}
				}
			}
		}
	}
}
MOTION
Frames: 16
Frame Time: 0.016667
-2967.630615 757.325439 1097.572998 -0.869707 5.222359 1.197114 1.255807 0.895727 -0.720445 1.280928 -0.214050 0.221845 1.253193 0.189246 -0.173737 -0.308988 -3.117977 -0.106941 0.000000 0.000000 0.000000 -0.550796 5.321632 -0.168166 0.192032 4.796141 2.314663 -0.161853 0.953082 -1.559705 0.000000 0.000000 0.000000 1.440539 -1.256965 2.378912 0.224989 -0.038809 -1.816061 0.606807 4.543809 1.458092 0.000000 0.000000 0.000000 1.185385 -2.844987 -2.951254 -0.367089 15.848715 3.039907 1.439856 -9.058008 -0.767716 0.000000 0.000000 0.000000 0.956537 -0.711669 -1.984534 1.600538 11.004653 1.455227 0.724867 -5.572356 0.240330 0.000000 0.000000 0.000000 
-2957.824219 756.946106 1098.390991 -0.569345 5.246303 1.374036 1.305461 1.044825 -0.696379 1.320367 -0.232364 0.227207 1.291545 0.211985 -0.176580 -0.259533 -2.970682 -0.242013 0.000000 0.000000 0.000000 -0.454454 5.375506 -0.165180 0.164881 4.921635 2.032758 -0.135882 0.657589 -1.579251 0.000000 0.000000 0.000000 1.382736 -1.310618 2.476556 0.091125 -0.015098 -1.973855 0.509861 3.764241 1.401242 0.000000 0.000000 0.000000 1.228747 -3.675697 -3.128681 -0.557025 18.802565 3.034522 1.535502 -9.425870 -0.790842 0.000000 0.000000 0.000000 0.892292 -0.742471 -2.249112 1.590315 12.017699 1.719680 0.709312 -5.310667 0.234564 0.000000 0.000000 0.000000 
-2947.774658 756.654846 1099.291016 -0.354799 5.239091 1.601054 1.343000 1.203561 -0.737642 1.347656 -0.256650 0.263401 1.314655 0.235870 -0.180894 -0.200514 -2.798535 -0.401924 0.000000 0.000000 0.000000 -0.358060 5.370937 -0.129289 0.123569 5.018030 1.625567 -0.103105 0.298162 -1.583602 0.000000 0.000000 0.000000 1.330873 -1.324563 2.612792 -0.038126 0.058476 -2.123849 0.403867 2.934040 1.243999 0.000000 0.000000 0.000000 1.306048 -4.614358 -3.401489 -0.728986 22.011152 3.043900 1.666403 -9.522714 -0.763727 0.000000 0.000000 0.000000 0.861534 -0.733170 -2.575023 1.611574 13.034311 1.960321 0.739198 -4.907764 0.247527 0.000000 0.000000 0.000000 
-2937.548584 756.325806 1100.215942 -0.266602 5.206933 1.792053 1.374837 1.347597 -0.743143 1.358264 -0.276874 0.274818 1.321799 0.266852 -0.190844 -0.143654 -2.600434 -0.540581 0.000000 0.000000 0.000000 -0.273557 5.307714 -0.077387 0.074445 5.068896 1.151586 -0.066608 -0.102326 -1.583776 0.000000 0.000000 0.000000 1.230338 -1.302611 2.771738 -0.175042 0.179445 -2.270170 0.292459 2.072740 1.087335 0.000000 0.000000 0.000000 1.450537 -5.835640 -3.700420 -0.866486 25.763831 3.137328 1.884279 -9.409473 -0.677854 0.000000 0.000000 0.000000 0.852011 -0.658470 -2.843481 1.650102 14.004129 2.144122 0.796600 -4.432547 0.271656 0.000000 0.000000 0.000000 
-2927.114502 755.879089 1101.208984 -0.330484 5.146321 1.935656 1.394940 1.469578 -0.759733 1.344774 -0.298592 0.286504 1.302824 0.308914 -0.204688 -0.094534 -2.364792 -0.631823 0.000000 0.000000 0.000000 -0.207024 5.172724 -0.010322 0.019528 5.056718 0.626899 -0.030656 -0.497903 -1.573430 0.000000 0.000000 0.000000 1.027527 -1.238259 2.949783 -0.337756 0.364246 -2.434108 0.177475 1.183004 1.034635 0.000000 0.000000 0.000000 1.690760 -7.422454 -4.021358 -0.933774 30.237119 3.365557 2.253495 -8.928621 -0.490466 0.000000 0.000000 0.000000 0.855882 -0.488752 -3.029156 1.692330 14.886109 2.251425 0.868363 -3.886826 0.301864 0.000000 0.000000 0.000000 
-2916.445557 755.364563 1102.295044 -0.497768 5.033970 2.111512 1.393648 1.624158 -0.913767 1.299731 -0.351547 0.362552 1.243221 0.361830 -0.220330 -0.048734 -2.092850 -0.694443 0.000000 0.000000 0.000000 -0.160065 4.961813 0.087104 -0.043276 4.985334 0.020623 0.005857 -0.897238 -1.542372 0.000000 0.000000 0.000000 0.736832 -1.131451 3.151206 -0.524467 0.613103 -2.617030 0.057715 0.258912 1.066534 0.000000 0.000000 0.000000 1.977141 -9.252184 -4.431960 -0.928370 35.203088 3.679501 2.764148 -7.815871 -0.172431 0.000000 0.000000 0.000000 0.869975 -0.213625 -3.229733 1.728471 15.693202 2.300862 0.949763 -3.217298 0.336754 0.000000 0.000000 0.000000 
-2905.885742 754.753784 1103.090942 -0.787248 4.896990 2.290113 1.414746 1.801901 -1.075617 1.247655 -0.388071 0.422090 1.172040 0.412852 -0.244481 -0.011618 -1.842199 -0.732361 0.000000 0.000000 0.000000 -0.125881 4.721111 0.177101 -0.103051 4.878051 -0.577943 0.052926 -1.442309 -1.534483 0.000000 0.000000 0.000000 0.454570 -1.018555 3.341707 -0.695659 0.847883 -2.748627 -0.062818 -0.655021 1.052321 0.000000 0.000000 0.000000 2.215063 -11.480551 -4.920848 -0.906419 40.620190 3.961086 3.307343 -6.197280 0.214101 0.000000 0.000000 0.000000 0.906405 0.129896 -3.415283 1.766882 16.435829 2.289320 1.041882 -2.560331 0.375721 0.000000 0.000000 0.000000 
-2895.760498 754.106018 1103.380005 -1.269183 4.752330 2.478471 1.505602 1.987905 -1.215700 1.210355 -0.353446 0.437830 1.111164 0.448682 -0.279869 0.012185 -1.657719 -0.746198 0.000000 0.000000 0.000000 -0.095933 4.461523 0.230577 -0.155305 4.733208 -1.124438 0.115724 -2.216288 -1.576244 0.000000 0.000000 0.000000 0.234494 -0.932814 3.511551 -0.819348 1.011220 -2.774464 -0.184047 -1.546584 0.856645 0.000000 0.000000 0.000000 2.379822 -14.406037 -5.520604 -0.838997 46.831036 4.092432 3.848571 -3.808164 0.687748 0.000000 0.000000 0.000000 0.983238 0.509153 -3.601705 1.818714 17.141857 2.201821 1.155154 -1.987299 0.422290 0.000000 0.000000 0.000000 
-2885.942139 753.437683 1103.308960 -1.836991 4.524508 2.786339 1.645243 2.322505 -1.557711 1.134892 -0.338579 0.525445 0.986411 0.472633 -0.320882 0.025988 -1.511880 -0.737342 0.000000 0.000000 0.000000 -0.071006 4.161465 0.274346 -0.204023 4.541926 -1.664745 0.191018 -3.166535 -1.635702 0.000000 0.000000 0.000000 0.042216 -0.858214 3.674363 -0.910063 1.134561 -2.720260 -0.306437 -2.438544 0.533951 0.000000 0.000000 0.000000 2.406570 -17.855926 -6.267801 -0.668110 53.579768 4.001828 4.355280 -0.113360 1.303610 0.000000 0.000000 0.000000 1.078459 0.999712 -3.904966 1.835513 17.798303 2.062413 1.255188 -1.399405 0.464333 0.000000 0.000000 0.000000 
-2875.976562 752.367737 1102.706055 -2.266647 4.239595 3.209374 1.796359 2.801751 -2.098208 1.005698 -0.418086 0.683846 0.775353 0.506068 -0.359391 0.033440 -1.383283 -0.711441 0.000000 0.000000 0.000000 -0.087779 3.913611 0.326897 -0.240619 4.381348 -2.130038 0.284144 -4.351566 -1.708408 0.000000 0.000000 0.000000 -0.099618 -0.750469 3.789002 -0.991791 1.255516 -2.622899 -0.418996 -3.282749 0.271578 0.000000 0.000000 0.000000 2.126755 -21.106759 -6.956516 -0.554048 59.330464 3.594239 4.315543 3.396542 1.684944 0.000000 0.000000 0.000000 1.177984 1.637789 -4.301794 1.784190 18.286227 1.943435 1.301829 -0.846880 0.486217 0.000000 0.000000 0.000000 
-2865.624512 750.625366 1101.352051 -2.593964 4.033033 3.644619 1.950526 3.196265 -2.669943 0.891036 -0.526420 0.829366 0.564944 0.568059 -0.402939 0.035062 -1.257006 -0.664392 0.000000 0.000000 0.000000 -0.189979 3.791323 0.396420 -0.258902 4.307778 -2.459117 0.404702 -5.895379 -1.809266 0.000000 0.000000 0.000000 -0.191897 -0.566585 3.833702 -1.096610 1.414935 -2.508464 -0.525260 -4.128738 0.208718 0.000000 0.000000 0.000000 1.544558 -23.943041 -7.376158 -0.640838 63.675750 2.875757 3.275003 4.867439 1.409637 0.000000 0.000000 0.000000 1.321336 2.357737 -4.678023 1.709710 18.505800 1.857156 1.321535 -0.453896 0.496832 0.000000 0.000000 0.000000 
-2855.056396 748.357178 1099.314941 -2.941233 3.919303 4.073888 2.126240 3.460746 -3.243718 0.812522 -0.611291 0.949920 0.381757 0.650068 -0.457940 0.029990 -1.142264 -0.596772 0.000000 0.000000 0.000000 -0.361836 3.757638 0.487226 -0.261942 4.295273 -2.694808 0.552938 -7.777163 -1.928285 0.000000 0.000000 0.000000 -0.244673 -0.322195 3.823108 -1.215075 1.599622 -2.363065 -0.628953 -4.995996 0.272925 0.000000 0.000000 0.000000 0.791648 -26.708240 -7.557615 -0.839783 67.333630 1.933176 1.470602 4.690481 0.556659 0.000000 0.000000 0.000000 1.531132 3.127053 -5.023326 1.635709 18.503592 1.774097 1.336889 -0.212090 0.504742 0.000000 0.000000 0.000000 
-2844.023438 745.635742 1097.035034 -3.273358 3.862113 4.440840 2.280281 3.636057 -3.744084 0.776544 -0.682306 1.053196 0.254780 0.715445 -0.508879 0.025278 -1.031187 -0.532868 0.000000 0.000000 0.000000 -0.526654 3.785708 0.568154 -0.256720 4.335202 -2.879440 0.702110 -9.628142 -2.019684 0.000000 0.000000 0.000000 -0.186296 -0.095533 3.742110 -1.268964 1.732027 -2.201571 -0.682923 -5.459448 0.332866 0.000000 0.000000 0.000000 0.145398 -29.266258 -7.585501 -1.003648 69.783826 1.105852 -0.362498 3.603640 -0.471199 0.000000 0.000000 0.000000 1.784440 3.902279 -5.286415 1.589406 18.427722 1.718449 1.360795 -0.001583 0.515178 0.000000 0.000000 0.000000 
-2832.315918 742.580139 1094.807983 -3.614615 3.866220 4.693035 2.373650 3.715074 -4.090592 0.807572 -0.740328 1.129140 0.239341 0.742104 -0.547155 0.024673 -0.924680 -0.487097 0.000000 0.000000 0.000000 -0.630423 3.873221 0.591216 -0.249214 4.429749 -3.018187 0.835164 -11.262753 -2.072951 0.000000 0.000000 0.000000 0.056716 0.054199 3.545074 -1.188963 1.739893 -2.032618 -0.639118 -5.082111 0.328551 0.000000 0.000000 0.000000 -0.242557 -31.553826 -7.550822 -1.100834 70.574898 0.635168 -1.964171 1.977276 -1.377994 0.000000 0.000000 0.000000 2.078064 4.681033 -5.431401 1.610831 18.271633 1.699867 1.423788 0.266330 0.539079 0.000000 0.000000 0.000000 
-2820.033203 739.166504 1092.465942 -4.008911 3.965916 4.840368 2.400931 3.638936 -4.299956 0.921934 -0.759641 1.169882 0.363206 0.741579 -0.580096 0.025184 -0.823508 -0.447621 0.000000 0.000000 0.000000 -0.701333 4.031891 0.563729 -0.238251 4.583194 -3.092020 0.960111 -12.824935 -2.117231 0.000000 0.000000 0.000000 0.456756 0.159590 3.228323 -0.999955 1.649264 -1.837604 -0.511869 -4.022734 0.314982 0.000000 0.000000 0.000000 -0.435071 -33.619214 -7.452166 -1.222788 69.855272 0.444239 -3.445888 -0.348750 -2.196775 0.000000 0.000000 0.000000 2.413846 5.462585 -5.472559 1.711631 17.972829 1.699812 1.540984 0.550157 0.581148 0.000000 0.000000 0.000000 
-2807.333740 735.044739 1089.988037 -4.254703 4.044516 4.899618 2.344957 3.513274 -4.407393 1.049400 -0.758886 1.188694 0.543042 0.731747 -0.605742 0.024018 -0.716058 -0.398091 0.000000 0.000000 0.000000 -0.757690 4.205192 0.549461 -0.228727 4.748783 -3.106184 1.053477 -14.055430 -2.166414 0.000000 0.000000 0.000000 0.894319 0.247409 2.972372 -0.790420 1.553611 -1.622012 -0.388658 -3.002230 0.154119 0.000000 0.000000 0.000000 -0.344951 -35.168213 -7.329683 -1.317478 67.767917 0.516638 -4.034490 -2.630057 -2.527969 0.000000 0.000000 0.000000 2.660895 6.103277 -5.368403 1.849546 18.002922 1.724591 1.664309 0.797930 0.625303 0.000000 0.000000 0.000000 
